<svg xmlns="http://www.w3.org/2000/svg" version="1.1" xmlns:xlink="http://www.w3.org/1999/xlink" viewBox="0 0 200 200"><rect width="200" height="200" fill="url('#gradient')"></rect><defs><linearGradient id="gradient" gradientTransform="rotate(45 0.5 0.5)"><stop offset="0%" stop-color="#42ff00"></stop><stop offset="100%" stop-color="#000000"></stop></linearGradient></defs><g><g fill="#39f700" transform="matrix(4.629992464204974,0,0,4.629992464204974,6.888544858130814,132.90046979649765)" stroke="#37e303" stroke-width="0.2"><path d="M13.12-7.47L13.12-6.82Q13.12-4.74 12.34-3.13Q11.57-1.53 10.15-0.67Q8.73 0.20 6.91 0.20Q5.10 0.20 3.69-0.64Q2.29-1.47 1.50-3.03Q0.71-4.58 0.67-6.59L0.67-6.59L0.67-7.39Q0.67-9.48 1.44-11.08Q2.21-12.68 3.64-13.54Q5.07-14.41 6.89-14.41L6.89-14.41Q8.70-14.41 10.12-13.55Q11.53-12.70 12.32-11.11Q13.11-9.52 13.12-7.47L13.12-7.47ZM9.63-6.76L9.63-7.41Q9.63-9.53 8.92-10.63Q8.21-11.73 6.89-11.73L6.89-11.73Q4.32-11.73 4.17-7.86L4.17-7.86L4.16-6.82Q4.16-4.73 4.85-3.60Q5.55-2.48 6.91-2.48L6.91-2.48Q8.21-2.48 8.92-3.58Q9.62-4.69 9.63-6.76L9.63-6.76ZM16.82-7.47L16.85-7.49Q16.27-8.31 15.94-9.05Q15.62-9.79 15.62-10.59L15.62-10.59Q15.62-12.30 16.73-13.36Q17.84-14.42 19.64-14.42L19.64-14.42Q21.25-14.42 22.30-13.44Q23.36-12.46 23.36-11.01L23.36-11.01Q23.36-9.19 21.36-7.78L21.36-7.78L20.62-7.27L22.80-4.76Q23.34-5.83 23.34-7.11L23.34-7.11L26.10-7.11Q26.10-4.23 24.78-2.49L24.78-2.49L26.94 0L23.27 0L22.61-0.75Q21.79-0.26 20.93-0.03Q20.08 0.21 19.00 0.21L19.00 0.21Q16.89 0.21 15.63-0.90Q14.36-2.01 14.36-3.82L14.36-3.82Q14.36-4.80 14.86-5.61Q15.36-6.41 16.82-7.47L16.82-7.47ZM19.22-2.33L19.22-2.33Q20.08-2.33 20.86-2.73L20.86-2.73L18.30-5.64L18.21-5.59Q17.66-4.90 17.66-4.04L17.66-4.04Q17.66-3.33 18.11-2.83Q18.55-2.33 19.22-2.33ZM18.46-10.63L18.46-10.63Q18.46-9.94 19.20-8.96L19.20-8.96L19.85-9.38Q20.30-9.67 20.51-9.98Q20.71-10.29 20.71-10.77L20.71-10.77Q20.71-11.22 20.40-11.55Q20.09-11.88 19.63-11.88L19.63-11.88Q19.08-11.88 18.77-11.54Q18.46-11.19 18.46-10.63ZM33.97-4.82L31.79-4.82L31.79 0L28.36 0L28.36-14.22L34.03-14.22Q35.66-14.22 36.92-13.62Q38.17-13.02 38.86-11.91Q39.55-10.80 39.55-9.39L39.55-9.39Q39.55-7.31 38.06-6.07Q36.57-4.82 33.97-4.82L33.97-4.82ZM31.79-11.57L31.79-7.47L34.03-7.47Q35.03-7.47 35.55-7.97Q36.07-8.47 36.07-9.38L36.07-9.38Q36.07-10.37 35.54-10.97Q35-11.56 34.07-11.57L34.07-11.57L31.79-11.57Z"></path></g></g></svg>